<svg xmlns="http://www.w3.org/2000/svg" id="cloudy" width="512" height="512" viewBox="0 0 512 512">
  <path d="M336.1,377.259H140.241a56.081,56.081,0,1,1,6.77-111.755,42.021,42.021,0,0,1,48.15-33.847,53.907,53.907,0,0,1,86.02,0,42.021,42.021,0,0,1,48.15,33.847,56.082,56.082,0,1,1,6.77,111.755ZM140.241,281.1a40.081,40.081,0,0,0,0,80.161H336.1a40.081,40.081,0,1,0-11.8-78.394,8,8,0,0,1-10.338-8.14c.034-.539.058-1.08.058-1.627a26.01,26.01,0,0,0-33.926-24.765,8,8,0,0,1-9.311-3.525,37.928,37.928,0,0,0-65.22,0,8,8,0,0,1-9.311,3.526A26.01,26.01,0,0,0,162.324,273.1c0,.547.024,1.088.057,1.627a8,8,0,0,1-10.337,8.14A40.091,40.091,0,0,0,140.241,281.1Z"></path>
  <path d="M317.982 265.017a8 8 0 0 1-8-8v-.009a8 8 0 1 1 8 8ZM95.686 311.1H74.081a56.081 56.081 0 1 1 6.77-111.755A42.022 42.022 0 0 1 129 165.5a53.916 53.916 0 0 1 86.023 0 42.028 42.028 0 0 1 47.794 32.092 8 8 0 1 1-15.6 3.554 25.861 25.861 0 0 0-25.354-20.2 26.169 26.169 0 0 0-7.943 1.234 8 8 0 0 1-9.3-3.53 37.934 37.934 0 0 0-65.22 0 8 8 0 0 1-9.306 3.524 26.014 26.014 0 0 0-33.925 24.767c0 .566.025 1.116.056 1.674a8 8 0 0 1-10.34 8.094 40.084 40.084 0 1 0-11.8 78.394H95.686a8 8 0 0 1 0 16Z"></path>
  <path d="M437.919,301.75H375.588a8,8,0,1,1,0-16h62.331a40.081,40.081,0,1,0-11.8-78.4,8,8,0,0,1-10.34-8.1c.032-.548.056-1.1.056-1.668a26.028,26.028,0,0,0-26-26,25.742,25.742,0,0,0-7.906,1.235,8,8,0,0,1-9.328-3.52,37.933,37.933,0,0,0-65.229,0,8,8,0,0,1-9.328,3.52,25.742,25.742,0,0,0-7.906-1.235,26.027,26.027,0,0,0-26,26c0,.565.024,1.123.055,1.674a8,8,0,0,1-10.339,8.093,40.116,40.116,0,0,0-51.569,33.277,8,8,0,1,1-15.876-1.986A56.115,56.115,0,0,1,248.83,190a42.013,42.013,0,0,1,48.149-33.847,53.911,53.911,0,0,1,86.021,0A42.013,42.013,0,0,1,431.149,190a56.082,56.082,0,1,1,6.77,111.755Z"></path>
</svg>
